<?xml version="1.0" encoding="utf-8"?>
<!-- Generator: Adobe Illustrator 27.3.1, SVG Export Plug-In . SVG Version: 6.00 Build 0)  -->
<svg version="1.1" id="Layer_1" xmlns="http://www.w3.org/2000/svg" xmlns:xlink="http://www.w3.org/1999/xlink" x="0px" y="0px"
	 viewBox="0 0 300 300" style="enable-background:new 0 0 300 300;" xml:space="preserve">
<style type="text/css">
	.st0{opacity:0.6;}
	.st1{fill:#FFFFFF;}
</style>
<g>
	<g class="st0">
		<path class="st1" d="M149.9,20.8c35.2,0,70.3-0.1,105.5,0.1c2.8,0,5.9,1.1,8.3,2.7c7.3,4.8,14.2,10,21.3,15.1
			c4.8,3.5,5.2,5.2,1.9,10.3c-27.6,43.5-55.1,87-82.8,130.5c-1.7,2.7-1.9,4.5-0.3,7.4c12.4,21.5,10.4,48.6-4.9,68.2
			c-15.5,19.9-41.1,28.5-65.2,21.9c-24.2-6.7-42.2-27.3-45.2-51.8c-1.7-13.9,0.9-26.9,7.9-38.9c1.5-2.5,1.1-4.1-0.3-6.4
			C68.8,137,41.6,94,14.3,51c-0.8-1.3-1.7-2.5-2.4-3.8c-1.7-2.8-1.2-5.4,1.4-7.3c8.3-6,16.5-12,25-17.7c1.6-1.1,4-1.3,6.1-1.3
			C79.6,20.8,114.8,20.8,149.9,20.8z M72.1,62.4c0.5,0.8,0.7,1.4,1,1.9c20.1,30.2,40.2,60.4,60.2,90.7c1.2,1.8,2.5,2,4.4,1.6
			c8-1.8,16-1.9,24-0.1c2.7,0.6,4-0.1,5.5-2.3c19.5-29.5,39.1-59,58.7-88.5c0.7-1,1.2-2,1.9-3.2C175.8,62.4,124.1,62.4,72.1,62.4z
			 M175.7,159.9c6.7,4.8,13.2,9.4,19.7,14.1c27-42.5,54.1-85.4,81.4-128.4c-5.8-4.2-11.3-8.1-17.1-12.2
			C231.7,75.7,203.6,117.9,175.7,159.9z M124.3,159.9c-27.9-42-56-84.2-84.1-126.6c-5.8,4.2-11.4,8.2-17.1,12.2
			c27.4,43.2,54.5,86,81.4,128.4C111.1,169.3,117.5,164.7,124.3,159.9z M248.2,31.5c-65.6,0-130.9,0-196.3,0
			c1.1,3.9,3.3,5.3,7.2,5.1c6.2-0.3,12.3-0.1,18.5,0c3.1,0,5,1.7,5.1,4.9c0.1,3.2-1.7,4.9-4.8,5.2c-1.6,0.2-3.3,0.1-4.9,0.1
			c-3.6,0-7.2,0-10.9,0c1.1,4,3.2,5.2,6.8,5.2c54.2-0.1,108.4-0.1,162.6-0.1c4.3,0,4.8-0.4,6.1-5.1c-4.7,0-9.4,0.1-14,0
			c-4.2-0.1-6.4-2-6.3-5.3c0.1-3.2,2.2-4.9,6.3-4.9c5.8,0,11.6-0.3,17.4,0.1C244.8,36.8,247.1,35.3,248.2,31.5z M149.9,165.5
			c-28.6,0.1-51.6,23.2-51.5,51.8c0.1,28.6,23.2,51.6,51.8,51.5c28.3-0.1,51.3-23.2,51.3-51.6C201.6,188.6,178.4,165.4,149.9,165.5z
			"/>
		<path class="st1" d="M149.8,258.4c-22.8-0.1-41.5-18.9-41.2-41.5c0.3-22.9,19-41.3,41.7-41.1c22.6,0.2,41.1,18.9,41,41.4
			C191.2,240,172.7,258.5,149.8,258.4z M149.9,186.2c-17.1,0-31,13.9-30.9,31.1c0.1,16.9,13.9,30.8,30.9,30.9
			c17,0.1,31.1-14,31.1-31C181,200.1,167.1,186.2,149.9,186.2z"/>
	</g>
</g>
</svg>
