<?xml version="1.0" encoding="utf-8"?>
<!-- Generator: Adobe Illustrator 27.3.1, SVG Export Plug-In . SVG Version: 6.00 Build 0)  -->
<svg version="1.1" id="Layer_1" xmlns="http://www.w3.org/2000/svg" xmlns:xlink="http://www.w3.org/1999/xlink" x="0px" y="0px"
	 viewBox="0 0 376.8 106.8" style="enable-background:new 0 0 376.8 106.8;" xml:space="preserve">
<style type="text/css">
	.st0{fill:#FFBB21;stroke:#FFBB21;stroke-width:0.5;stroke-miterlimit:10;}
	.st1{fill:#CBCBCB;stroke:#CBCBCB;stroke-width:0.5;stroke-miterlimit:10;}
	.st2{fill:#A98C4A;stroke:#A98C4A;stroke-width:0.5;stroke-miterlimit:10;}
</style>
<g>
	<g>
		<g>
			<path class="st0" d="M48.7,13.7c10.8,0,21.6,0,32.4,0c0.9,0,1.8,0.3,2.5,0.8c2.2,1.5,4.4,3.1,6.5,4.6c1.5,1.1,1.6,1.6,0.6,3.2
				c-8.5,13.4-17,26.8-25.5,40.1c-0.5,0.8-0.6,1.4-0.1,2.3c3.8,6.6,3.2,14.9-1.5,21c-4.8,6.1-12.6,8.8-20,6.7
				c-7.4-2-13-8.4-13.9-15.9c-0.5-4.3,0.3-8.3,2.4-11.9c0.5-0.8,0.3-1.3-0.1-2C23.8,49.4,15.4,36.2,7,23c-0.2-0.4-0.5-0.8-0.7-1.2
				c-0.5-0.9-0.4-1.7,0.4-2.2c2.5-1.8,5.1-3.7,7.7-5.4c0.5-0.3,1.2-0.4,1.9-0.4C27.1,13.7,37.9,13.7,48.7,13.7z M24.8,26.5
				c0.1,0.3,0.2,0.4,0.3,0.6c6.2,9.3,12.3,18.6,18.5,27.9c0.4,0.6,0.8,0.6,1.4,0.5c2.5-0.6,4.9-0.6,7.4,0c0.8,0.2,1.2,0,1.7-0.7
				c6-9.1,12-18.1,18-27.2c0.2-0.3,0.4-0.6,0.6-1C56.7,26.5,40.8,26.5,24.8,26.5z M56.6,56.5c2.1,1.5,4,2.9,6.1,4.3
				c8.3-13.1,16.6-26.2,25-39.5c-1.8-1.3-3.5-2.5-5.2-3.8C73.8,30.6,65.2,43.5,56.6,56.5z M40.8,56.5C32.3,43.5,23.6,30.6,15,17.6
				c-1.8,1.3-3.5,2.5-5.3,3.7c8.4,13.3,16.8,26.4,25,39.5C36.8,59.3,38.8,57.9,40.8,56.5z M78.9,17c-20.2,0-40.2,0-60.3,0
				c0.3,1.2,1,1.6,2.2,1.6c1.9-0.1,3.8,0,5.7,0c1,0,1.5,0.5,1.6,1.5c0,1-0.5,1.5-1.5,1.6c-0.5,0-1,0-1.5,0c-1.1,0-2.2,0-3.4,0
				c0.3,1.2,1,1.6,2.1,1.6c16.7,0,33.3,0,50,0c1.3,0,1.5-0.1,1.9-1.6c-1.5,0-2.9,0-4.3,0c-1.3,0-2-0.6-1.9-1.6c0-1,0.7-1.5,1.9-1.5
				c1.8,0,3.6-0.1,5.3,0C77.9,18.6,78.6,18.2,78.9,17z M48.7,58.2c-8.8,0-15.9,7.1-15.8,15.9c0,8.8,7.1,15.8,15.9,15.8
				c8.7,0,15.8-7.1,15.8-15.9C64.6,65.3,57.5,58.2,48.7,58.2z"/>
			<path class="st0" d="M48.7,86.7c-7,0-12.8-5.8-12.7-12.8c0.1-7,5.8-12.7,12.8-12.6c6.9,0.1,12.6,5.8,12.6,12.7
				C61.4,81.1,55.7,86.8,48.7,86.7z M48.7,64.6c-5.3,0-9.5,4.3-9.5,9.5c0,5.2,4.3,9.5,9.5,9.5c5.2,0,9.6-4.3,9.6-9.5
				C58.3,68.8,54,64.5,48.7,64.6z"/>
		</g>
	</g>
	<g>
		<g>
			<path class="st1" d="M188.4,13.7c10.8,0,21.6,0,32.4,0c0.9,0,1.8,0.3,2.5,0.8c2.2,1.5,4.4,3.1,6.5,4.6c1.5,1.1,1.6,1.6,0.6,3.2
				c-8.5,13.4-17,26.8-25.5,40.1c-0.5,0.8-0.6,1.4-0.1,2.3c3.8,6.6,3.2,14.9-1.5,21c-4.8,6.1-12.6,8.8-20,6.7
				c-7.4-2-13-8.4-13.9-15.9c-0.5-4.3,0.3-8.3,2.4-11.9c0.5-0.8,0.3-1.3-0.1-2c-8.4-13.2-16.8-26.4-25.1-39.6
				c-0.2-0.4-0.5-0.8-0.7-1.2c-0.5-0.9-0.4-1.7,0.4-2.2c2.5-1.8,5.1-3.7,7.7-5.4c0.5-0.3,1.2-0.4,1.9-0.4
				C166.8,13.7,177.6,13.7,188.4,13.7z M164.4,26.5c0.1,0.3,0.2,0.4,0.3,0.6c6.2,9.3,12.3,18.6,18.5,27.9c0.4,0.6,0.8,0.6,1.4,0.5
				c2.5-0.6,4.9-0.6,7.4,0c0.8,0.2,1.2,0,1.7-0.7c6-9.1,12-18.1,18-27.2c0.2-0.3,0.4-0.6,0.6-1C196.3,26.5,180.4,26.5,164.4,26.5z
				 M196.3,56.5c2.1,1.5,4,2.9,6.1,4.3c8.3-13.1,16.6-26.2,25-39.5c-1.8-1.3-3.5-2.5-5.2-3.8C213.5,30.6,204.9,43.5,196.3,56.5z
				 M180.5,56.5c-8.6-12.9-17.2-25.9-25.9-38.9c-1.8,1.3-3.5,2.5-5.3,3.7c8.4,13.3,16.8,26.4,25,39.5
				C176.4,59.3,178.4,57.9,180.5,56.5z M218.6,17c-20.2,0-40.2,0-60.3,0c0.3,1.2,1,1.6,2.2,1.6c1.9-0.1,3.8,0,5.7,0
				c1,0,1.5,0.5,1.6,1.5c0,1-0.5,1.5-1.5,1.6c-0.5,0-1,0-1.5,0c-1.1,0-2.2,0-3.4,0c0.3,1.2,1,1.6,2.1,1.6c16.7,0,33.3,0,50,0
				c1.3,0,1.5-0.1,1.9-1.6c-1.5,0-2.9,0-4.3,0c-1.3,0-2-0.6-1.9-1.6c0-1,0.7-1.5,1.9-1.5c1.8,0,3.6-0.1,5.3,0
				C217.5,18.6,218.2,18.2,218.6,17z M188.4,58.2c-8.8,0-15.9,7.1-15.8,15.9c0,8.8,7.1,15.8,15.9,15.8c8.7,0,15.8-7.1,15.8-15.9
				C204.2,65.3,197.1,58.2,188.4,58.2z"/>
			<path class="st1" d="M188.3,86.7c-7,0-12.8-5.8-12.7-12.8c0.1-7,5.8-12.7,12.8-12.6c6.9,0.1,12.6,5.8,12.6,12.7
				C201.1,81.1,195.4,86.8,188.3,86.7z M188.4,64.6c-5.3,0-9.5,4.3-9.5,9.5c0,5.2,4.3,9.5,9.5,9.5c5.2,0,9.6-4.3,9.6-9.5
				C197.9,68.8,193.7,64.5,188.4,64.6z"/>
		</g>
	</g>
	<g>
		<g>
			<path class="st2" d="M328,13.7c10.8,0,21.6,0,32.4,0c0.9,0,1.8,0.3,2.5,0.8c2.2,1.5,4.4,3.1,6.5,4.6c1.5,1.1,1.6,1.6,0.6,3.2
				c-8.5,13.4-17,26.8-25.5,40.1c-0.5,0.8-0.6,1.4-0.1,2.3c3.8,6.6,3.2,14.9-1.5,21c-4.8,6.1-12.6,8.8-20,6.7
				c-7.4-2-13-8.4-13.9-15.9c-0.5-4.3,0.3-8.3,2.4-11.9c0.5-0.8,0.3-1.3-0.1-2c-8.4-13.2-16.8-26.4-25.1-39.6
				c-0.2-0.4-0.5-0.8-0.7-1.2c-0.5-0.9-0.4-1.7,0.4-2.2c2.5-1.8,5.1-3.7,7.7-5.4c0.5-0.3,1.2-0.4,1.9-0.4
				C306.4,13.7,317.2,13.7,328,13.7z M304.1,26.5c0.1,0.3,0.2,0.4,0.3,0.6c6.2,9.3,12.3,18.6,18.5,27.9c0.4,0.6,0.8,0.6,1.4,0.5
				c2.5-0.6,4.9-0.6,7.4,0c0.8,0.2,1.2,0,1.7-0.7c6-9.1,12-18.1,18-27.2c0.2-0.3,0.4-0.6,0.6-1C336,26.5,320.1,26.5,304.1,26.5z
				 M336,56.5c2.1,1.5,4,2.9,6.1,4.3c8.3-13.1,16.6-26.2,25-39.5c-1.8-1.3-3.5-2.5-5.2-3.8C353.2,30.6,344.5,43.5,336,56.5z
				 M320.1,56.5c-8.6-12.9-17.2-25.9-25.9-38.9c-1.8,1.3-3.5,2.5-5.3,3.7c8.4,13.3,16.8,26.4,25,39.5
				C316.1,59.3,318.1,57.9,320.1,56.5z M358.2,17c-20.2,0-40.2,0-60.3,0c0.3,1.2,1,1.6,2.2,1.6c1.9-0.1,3.8,0,5.7,0
				c1,0,1.5,0.5,1.6,1.5c0,1-0.5,1.5-1.5,1.6c-0.5,0-1,0-1.5,0c-1.1,0-2.2,0-3.4,0c0.3,1.2,1,1.6,2.1,1.6c16.7,0,33.3,0,50,0
				c1.3,0,1.5-0.1,1.9-1.6c-1.5,0-2.9,0-4.3,0c-1.3,0-2-0.6-1.9-1.6c0-1,0.7-1.5,1.9-1.5c1.8,0,3.6-0.1,5.3,0
				C357.2,18.6,357.9,18.2,358.2,17z M328,58.2c-8.8,0-15.9,7.1-15.8,15.9c0,8.8,7.1,15.8,15.9,15.8c8.7,0,15.8-7.1,15.8-15.9
				C343.9,65.3,336.8,58.2,328,58.2z"/>
			<path class="st2" d="M328,86.7c-7,0-12.8-5.8-12.7-12.8c0.1-7,5.8-12.7,12.8-12.6c6.9,0.1,12.6,5.8,12.6,12.7
				C340.7,81.1,335,86.8,328,86.7z M328,64.6c-5.3,0-9.5,4.3-9.5,9.5c0,5.2,4.3,9.5,9.5,9.5c5.2,0,9.6-4.3,9.6-9.5
				C337.6,68.8,333.3,64.5,328,64.6z"/>
		</g>
	</g>
</g>
</svg>
