<?xml version="1.0" encoding="utf-8"?>
<!-- Generator: Adobe Illustrator 25.2.3, SVG Export Plug-In . SVG Version: 6.00 Build 0)  -->
<svg version="1.1" id="Layer_1" xmlns="http://www.w3.org/2000/svg" xmlns:xlink="http://www.w3.org/1999/xlink" x="0px" y="0px"
	 viewBox="0 0 318 65" style="enable-background:new 0 0 318 65;" xml:space="preserve">
<style type="text/css">
	.st0{fill-rule:evenodd;clip-rule:evenodd;fill:#FFFFFF;}
	.st1{fill:#FFFFFF;}
</style>
<g>
	<g>
		<g>
			<polygon class="st0" points="187.7,60.4 187.7,50.8 173.6,50.8 173.6,22 162.1,22 162.1,60.4 			"/>
			<path class="st0" d="M282.7,51.4c-3.4,1.5-6,2.1-8.3,2.1c-2.9,0-4.9-0.7-5.3-5h15.4v-3.5c0-9-4.7-14.1-12.7-14.1
				c-7.7,0-12.8,5.2-12.8,14.1v1.5c0,9,4.9,14.1,13.6,14.1c5,0,7.9-0.6,12.4-2.7L282.7,51.4z M271.7,37c1.9,0,2.7,1.5,2.7,7.5H269
				C269,38.7,269.7,37,271.7,37z"/>
			<path class="st0" d="M257.7,41.9V31c-3.6,0.4-6.6,3.3-10.2,10.9L247.3,31l-10.9,1.3v28.1h10.9V44.9
				C249.8,43.4,253,42.3,257.7,41.9z"/>
			<path class="st0" d="M224.6,31.1c-3.2,0-5.3,1.9-7.5,5l-0.2-16L206,21.4v38.1l10.9,1.3v-5.1c2.2,3.2,4.2,5,7.7,5
				c5.3,0,8.4-5,8.4-14v-1.7C233,36.1,230.2,31.1,224.6,31.1z M219.6,53.9c-1.7,0-2.7-2-2.7-8c0-6.1,1-8.1,2.7-8.1
				c1.7,0,2.8,2,2.8,8.1C222.4,52,221.3,53.9,219.6,53.9z"/>
			<rect x="190.9" y="31.5" class="st0" width="10.9" height="28.9"/>
			<circle class="st1" cx="196.3" cy="25.3" r="5.5"/>
		</g>
		<g>
			<path class="st0" d="M18,22.1H2.9v38.4H18c9.5,0,15.9-5.9,15.9-17.8v-2.9C33.9,28.1,27.5,22.1,18,22.1z M21.9,43.9
				c0,5.5-1.3,8-4.4,8h-3.4V30.8h3.4c3,0,4.4,2.5,4.4,8V43.9z M37.5,31.6v28.9h10.9V31.6H37.5z M76.9,54.6V41.1
				c0-7-3.2-9.8-11.1-9.8c-4.6,0-8.5,1.3-13,3.6l2.8,6.2c3.9-2,6.5-2.7,8.4-2.7c2,0,3,1.1,3,2.7v2.2c-10.8,0.7-15.5,3.8-15.5,9.7
				c0,5,3.5,7.7,7.6,7.7c3.1,0,5.5-1.3,8.1-3.8c1.4,2.5,4.9,3.8,12.3,3.8v-3.6C77.3,56.9,76.9,56.5,76.9,54.6z M66.9,54
				c-1,0.5-1.7,0.6-2.8,0.6c-1.9,0-3-1.1-3-2.9c0-2.4,1.2-3.9,5.8-4.6V54z M92.9,42l-0.2-10.8l-10.9,1.3v28.1h10.9V45.1
				c2.5-1.5,5.7-2.6,10.4-3V31.1C99.5,31.6,96.5,34.4,92.9,42z M105.8,31.6v28.9h10.9V31.6H105.8z M133.6,31.1
				c-8.6,0-13.5,5.2-13.5,14.1v1.7c0,9,5,14.1,13.5,14.1s13.6-5.2,13.6-14.1v-1.7C147.2,36.3,142.2,31.1,133.6,31.1z M136.3,47
				c0,6-0.7,7.7-2.7,7.7s-2.7-1.7-2.7-7.7v-1.8c0-6,0.7-7.7,2.7-7.7s2.7,1.7,2.7,7.7V47z"/>
			<path class="st1" d="M116.8,25.3c0,3-2.5,5.5-5.5,5.5s-5.5-2.5-5.5-5.5s2.5-5.5,5.5-5.5C114.3,19.7,116.8,22.2,116.8,25.3z"/>
			<g>
				<circle class="st1" cx="42.9" cy="25.3" r="5.5"/>
			</g>
		</g>
	</g>
	<g>
		<polygon class="st1" points="298.1,10.9 297.5,13.5 299.7,11.6 302.3,15.4 302.3,10.6 307.4,10.3 303.3,8.3 304.9,5.8 302,7 
			302.5,4.2 300.3,6.1 297.9,3.5 298.3,6.6 295.6,6.8 298.2,9 295.4,10.8 		"/>
		<path class="st1" d="M315.1,61.5l-4.1-3.6l-2.1-25.2l-1.3-1.8l4-18.7h-5.8v1.6L304,14l-2.4,14.4l-1.6-0.3l1-2.5l-7.4-1.3l-1.8,2.8
			l0.3,0.5l-1.4,1.9l1,1.4L293,29l0.2,0.3l-1.4,1.9l1,1.4l1.4-1.9l0.2,0.3l-1.4,1.9l1,1.4l1.3-2l0.2,0.2l-8.6,14.9l4.4,2.8l1.5-2.4
			l1.3,0.8L296,46L294,61.5L315.1,61.5L315.1,61.5z M304.2,60.8l-2.4-2.8v-7.8h2.4V60.8z M295.2,43.9l1.2-1.9l-0.4,3L295.2,43.9z
			 M298.6,38.1h-1.6l-3.7,5.9l1.1,1.4l-0.7,1l-1.4-0.9l-1.5,2.4L289,47l8.3-14.5l-3.6-5.4l0.6-1l4.4,0.8l-1,2.4l5.2,1.1l2.5-14.9
			l0.8-0.1v2.1h1.6v-3.6h1.7l-3.7,17.5l1.5,2l2.2,25.4l1.4,1.2h-5V48.6h-5.6v10l1.1,1.3h-5.5L298.6,38.1z"/>
		<path class="st1" d="M296.1,26.9c-0.5-0.2-1-0.1-1.1,0.2c-0.1,0.3,0.1,0.7,0.6,0.9c0.5,0.2,1,0.1,1.1-0.2
			C296.8,27.5,296.6,27.1,296.1,26.9z"/>
	</g>
</g>
</svg>
