<?xml version="1.0" encoding="utf-8"?>
<!-- Generator: Adobe Illustrator 24.0.2, SVG Export Plug-In . SVG Version: 6.00 Build 0)  -->
<svg version="1.1" id="Layer_1" xmlns="http://www.w3.org/2000/svg" xmlns:xlink="http://www.w3.org/1999/xlink" x="0px" y="0px"
	 viewBox="0 0 320 59.44" style="enable-background:new 0 0 320 59.44;" xml:space="preserve">
<style type="text/css">
	.st0{fill-rule:evenodd;clip-rule:evenodd;fill:#037551;}
	.st1{fill:#037551;}
</style>
<g>
	<g>
		<g>
			<polygon class="st0" points="189.43,58.29 189.43,48.45 175,48.45 175,18.92 163.19,18.92 163.19,58.29 			"/>
			<path class="st0" d="M286.72,49.1c-3.5,1.59-6.18,2.13-8.53,2.13c-3.01,0-5.03-0.71-5.41-5.08h15.8V42.6
				c0-9.18-4.81-14.49-13.06-14.49c-7.93,0-13.07,5.31-13.07,14.49v1.59c0,9.18,4.98,14.48,13.89,14.48c5.08,0,8.09-0.65,12.74-2.73
				L286.72,49.1z M275.51,34.34c1.97,0,2.73,1.53,2.79,7.71h-5.58C272.72,36.04,273.49,34.34,275.51,34.34z"/>
			<path class="st0" d="M261.19,39.37V28.16c-3.72,0.44-6.78,3.34-10.44,11.15l-0.22-11.1l-11.15,1.31v28.76h11.15V42.43
				C253.1,40.9,256.32,39.8,261.19,39.37z"/>
			<path class="st0" d="M227.24,28.27c-3.28,0-5.41,1.97-7.7,5.14l-0.22-16.35l-11.15,1.31v39.04l11.15,1.31v-5.19
				c2.3,3.28,4.32,5.13,7.93,5.13c5.41,0,8.64-5.13,8.64-14.33V42.6C235.88,33.41,232.93,28.27,227.24,28.27z M222.1,51.67
				c-1.74,0-2.79-2.02-2.79-8.15c0-6.23,1.04-8.25,2.79-8.25c1.75,0,2.85,2.02,2.85,8.25C224.95,49.65,223.85,51.67,222.1,51.67z"/>
			<rect x="192.65" y="28.65" class="st0" width="11.15" height="29.63"/>
			<circle class="st1" cx="198.23" cy="22.29" r="5.66"/>
		</g>
		<g>
			<path class="st0" d="M15.47,19.1H0v39.36h15.47c9.73,0,16.29-6.07,16.29-18.2V37.3C31.76,25.17,25.2,19.1,15.47,19.1z
				 M19.52,41.4c0,5.68-1.37,8.2-4.49,8.2h-3.5V27.96h3.5c3.12,0,4.49,2.51,4.49,8.2V41.4z M35.48,28.83v29.63h11.15V28.83H35.48z
				 M75.87,52.34V38.5c0-7.16-3.33-10-11.42-10c-4.7,0-8.69,1.31-13.34,3.72l2.85,6.4c4.04-2.08,6.61-2.74,8.58-2.74
				c2.02,0,3.11,1.1,3.11,2.79v2.24c-11.09,0.71-15.9,3.94-15.9,9.95c0,5.09,3.55,7.88,7.82,7.88c3.22,0,5.63-1.31,8.25-3.94
				c1.42,2.57,4.98,3.94,12.63,3.94v-3.72C76.31,54.68,75.87,54.36,75.87,52.34z M65.65,51.79c-0.98,0.49-1.75,0.65-2.84,0.65
				c-1.97,0-3.06-1.09-3.06-3.01c0-2.46,1.26-4.04,5.9-4.76V51.79z M92.27,39.49l-0.22-11.09L80.9,29.7v28.76h11.15V42.61
				c2.57-1.53,5.79-2.62,10.66-3.06V28.33C99,28.78,95.93,31.67,92.27,39.49z M105.5,28.83v29.63h11.15V28.83H105.5z M133.97,28.28
				c-8.8,0-13.88,5.31-13.88,14.49v1.75c0,9.18,5.08,14.48,13.88,14.48s13.89-5.31,13.89-14.48v-1.75
				C147.86,33.59,142.77,28.28,133.97,28.28z M136.76,44.57c0,6.18-0.77,7.87-2.79,7.87s-2.79-1.69-2.79-7.87v-1.86
				c0-6.18,0.77-7.87,2.79-7.87s2.79,1.69,2.79,7.87V44.57z"/>
			<path class="st1" d="M116.73,22.29c0,3.13-2.53,5.66-5.66,5.66s-5.66-2.53-5.66-5.66c0-3.13,2.53-5.66,5.66-5.66
				C114.2,16.63,116.73,19.17,116.73,22.29z"/>
			<g>
				<circle class="st1" cx="41.05" cy="22.29" r="5.66"/>
			</g>
		</g>
	</g>
	<g>
		<polygon class="st1" points="302.56,7.6 301.89,10.26 304.23,8.27 306.83,12.14 306.9,7.25 312.08,7.02 307.91,4.96 309.48,2.34 
			306.55,3.58 307.1,0.72 304.84,2.7 302.36,0 302.71,3.22 299.98,3.36 302.66,5.64 299.8,7.43 		"/>
		<path class="st1" d="M320,59.44l-4.2-3.71l-2.2-25.84l-1.37-1.82l4.08-19.17h-5.95v1.62l-1.78,0.2l-2.44,14.79l-1.67-0.35
			l1.03-2.51l-7.63-1.38l-1.83,2.91l0.32,0.48l-1.43,1.96l0.98,1.43l1.42-1.95l0.19,0.3l-1.43,1.98l0.98,1.41l1.43-1.95l0.21,0.31
			l-1.43,1.97l0.99,1.45l1.35-2.05l0.17,0.25l-8.76,15.3l4.49,2.82l1.55-2.46l1.36,0.87l1.92-2.77l-1.97,15.89L320,59.44L320,59.44z
			 M308.81,58.7l-2.42-2.85v-7.99h2.42V58.7z M299.6,41.45l1.25-2l-0.38,3.1L299.6,41.45z M303.01,35.48h-1.65l-3.81,6.08l1.13,1.43
			l-0.73,1.04l-1.43-0.9l-1.55,2.47l-1.72-1.08l8.48-14.81l-3.73-5.55l0.65-1.04l4.49,0.81l-1.01,2.46l5.33,1.11L310,12.24
			l0.78-0.09v2.11h1.67v-3.69h1.78l-3.81,17.91l1.55,2.04l2.21,26.02l1.39,1.24h-5.1V46.19h-5.76v10.26l1.11,1.31h-5.59
			L303.01,35.48z"/>
		<path class="st1" d="M300.47,23.94c-0.5-0.21-1-0.13-1.14,0.2c-0.13,0.31,0.15,0.74,0.64,0.95c0.5,0.21,1,0.13,1.14-0.19
			C301.25,24.57,300.96,24.15,300.47,23.94z"/>
	</g>
</g>
</svg>
