<?xml version="1.0" encoding="utf-8"?>
<!-- Generator: Adobe Illustrator 17.0.0, SVG Export Plug-In . SVG Version: 6.00 Build 0)  -->
<!DOCTYPE svg PUBLIC "-//W3C//DTD SVG 1.1//EN" "http://www.w3.org/Graphics/SVG/1.1/DTD/svg11.dtd">
<svg version="1.1" id="Capa_1" xmlns="http://www.w3.org/2000/svg" xmlns:xlink="http://www.w3.org/1999/xlink" x="0px" y="0px"
	 width="300px" height="300px" viewBox="0 0 300 300" enable-background="new 0 0 300 300" xml:space="preserve">
<path fill="#000" d="M290.415,273.252l-71.4-74.26c18.358-21.824,28.417-49.282,28.417-77.868
	C247.432,54.338,193.094,0,126.307,0S5.182,54.338,5.182,121.125S59.52,242.25,126.307,242.25c25.073,0,48.966-7.562,69.394-21.918
	l71.943,74.824c3.007,3.123,7.052,4.845,11.386,4.845c4.102,0,7.994-1.564,10.949-4.408
	C296.256,289.552,296.456,279.535,290.415,273.252z M126.307,31.598c49.366,0,89.527,40.161,89.527,89.527
	s-40.161,89.527-89.527,89.527S36.78,170.491,36.78,121.125S76.941,31.598,126.307,31.598z"/>
</svg>
